<svg width="1200" height="630" viewBox="0 0 1200 630" fill="none" xmlns="http://www.w3.org/2000/svg">
  <defs>
    <linearGradient id="bg" x1="80" y1="40" x2="1120" y2="590" gradientUnits="userSpaceOnUse">
      <stop stop-color="#08111f"/>
      <stop offset="0.5" stop-color="#0f1f33"/>
      <stop offset="1" stop-color="#14263d"/>
    </linearGradient>
    <radialGradient id="glow1" cx="0" cy="0" r="1" gradientUnits="userSpaceOnUse" gradientTransform="translate(240 120) rotate(35) scale(320 220)">
      <stop stop-color="#4cc9f0" stop-opacity="0.34"/>
      <stop offset="1" stop-color="#4cc9f0" stop-opacity="0"/>
    </radialGradient>
    <radialGradient id="glow2" cx="0" cy="0" r="1" gradientUnits="userSpaceOnUse" gradientTransform="translate(930 170) rotate(-24) scale(360 240)">
      <stop stop-color="#7c6cff" stop-opacity="0.28"/>
      <stop offset="1" stop-color="#7c6cff" stop-opacity="0"/>
    </radialGradient>
    <linearGradient id="accent" x1="460" y1="210" x2="770" y2="420" gradientUnits="userSpaceOnUse">
      <stop stop-color="#7c6cff"/>
      <stop offset="1" stop-color="#4cc9f0"/>
    </linearGradient>
  </defs>
  <rect width="1200" height="630" fill="url(#bg)"/>
  <rect width="1200" height="630" fill="url(#glow1)"/>
  <rect width="1200" height="630" fill="url(#glow2)"/>
  <g opacity="0.18" stroke="#d8e8ff">
    <path d="M0 92H1200"/>
    <path d="M0 190H1200"/>
    <path d="M0 288H1200"/>
    <path d="M0 386H1200"/>
    <path d="M0 484H1200"/>
    <path d="M122 0V630"/>
    <path d="M284 0V630"/>
    <path d="M446 0V630"/>
    <path d="M608 0V630"/>
    <path d="M770 0V630"/>
    <path d="M932 0V630"/>
    <path d="M1094 0V630"/>
  </g>
  <g>
    <rect x="86" y="84" width="1028" height="462" rx="38" fill="#09111d" fill-opacity="0.36" stroke="#ffffff" stroke-opacity="0.08"/>
    <rect x="86" y="84" width="1028" height="462" rx="38" stroke="url(#accent)" stroke-opacity="0.3"/>
  </g>
  <g transform="translate(122 154)">
    <rect width="108" height="108" rx="28" fill="url(#accent)" fill-opacity="0.14" stroke="url(#accent)" stroke-opacity="0.45"/>
    <path d="M54 30L82 44V65C82 85 68 98 54 106C40 98 26 85 26 65V44L54 30Z" stroke="#e7f7ff" stroke-width="5" stroke-linejoin="round"/>
    <path d="M54 49V76" stroke="#e7f7ff" stroke-width="5" stroke-linecap="round"/>
    <circle cx="54" cy="85" r="3.5" fill="#e7f7ff"/>
  </g>
  <text x="256" y="185" fill="#eaf4ff" font-family="Inter, Arial, sans-serif" font-size="18" font-weight="600" letter-spacing="0.22em">ANONYMOUS REPORTING</text>
  <text x="256" y="282" fill="#ffffff" font-family="Inter, Arial, sans-serif" font-size="72" font-weight="800" letter-spacing="-0.04em">Speak Without Fear.</text>
  <text x="256" y="362" fill="url(#accent)" font-family="Inter, Arial, sans-serif" font-size="72" font-weight="800" letter-spacing="-0.04em">Be Heard With Dignity.</text>
  <text x="256" y="432" fill="#c8d7eb" font-family="Inter, Arial, sans-serif" font-size="26" font-weight="500">Secure, anonymous reporting with a calm privacy-first interface.</text>
  <g transform="translate(256 472)">
    <rect width="198" height="46" rx="23" fill="#eaf4ff" fill-opacity="0.92"/>
    <text x="99" y="29" fill="#0b1220" font-family="Inter, Arial, sans-serif" font-size="16" font-weight="700" text-anchor="middle">Privacy-first civic trust</text>
  </g>
</svg>